<svg id="visual" viewBox="0 0 900 600" width="900" height="600" xmlns="http://www.w3.org/2000/svg" xmlns:xlink="http://www.w3.org/1999/xlink" version="1.1"><path d="M0 448L21.5 446.5C43 445 86 442 128.8 438.8C171.7 435.7 214.3 432.3 257.2 431C300 429.7 343 430.3 385.8 427.3C428.7 424.3 471.3 417.7 514.2 404.8C557 392 600 373 642.8 369.7C685.7 366.3 728.3 378.7 771.2 390.8C814 403 857 415 878.5 421L900 427L900 601L878.5 601C857 601 814 601 771.2 601C728.3 601 685.7 601 642.8 601C600 601 557 601 514.2 601C471.3 601 428.7 601 385.8 601C343 601 300 601 257.2 601C214.3 601 171.7 601 128.8 601C86 601 43 601 21.5 601L0 601Z" fill="#0066ff"></path><path d="M0 404L21.5 405.8C43 407.7 86 411.3 128.8 411.7C171.7 412 214.3 409 257.2 419C300 429 343 452 385.8 460.8C428.7 469.7 471.3 464.3 514.2 459.2C557 454 600 449 642.8 438.5C685.7 428 728.3 412 771.2 417.8C814 423.7 857 451.3 878.5 465.2L900 479L900 601L878.5 601C857 601 814 601 771.2 601C728.3 601 685.7 601 642.8 601C600 601 557 601 514.2 601C471.3 601 428.7 601 385.8 601C343 601 300 601 257.2 601C214.3 601 171.7 601 128.8 601C86 601 43 601 21.5 601L0 601Z" fill="#0052c5"></path><path d="M0 468L21.5 472.5C43 477 86 486 128.8 480.8C171.7 475.7 214.3 456.3 257.2 456.3C300 456.3 343 475.7 385.8 477C428.7 478.3 471.3 461.7 514.2 460.7C557 459.7 600 474.3 642.8 476.5C685.7 478.7 728.3 468.3 771.2 470.7C814 473 857 488 878.5 495.5L900 503L900 601L878.5 601C857 601 814 601 771.2 601C728.3 601 685.7 601 642.8 601C600 601 557 601 514.2 601C471.3 601 428.7 601 385.8 601C343 601 300 601 257.2 601C214.3 601 171.7 601 128.8 601C86 601 43 601 21.5 601L0 601Z" fill="#003e8c"></path><path d="M0 535L21.5 526.7C43 518.3 86 501.7 128.8 501.2C171.7 500.7 214.3 516.3 257.2 524.8C300 533.3 343 534.7 385.8 535.7C428.7 536.7 471.3 537.3 514.2 536.7C557 536 600 534 642.8 533.8C685.7 533.7 728.3 535.3 771.2 527.2C814 519 857 501 878.5 492L900 483L900 601L878.5 601C857 601 814 601 771.2 601C728.3 601 685.7 601 642.8 601C600 601 557 601 514.2 601C471.3 601 428.7 601 385.8 601C343 601 300 601 257.2 601C214.3 601 171.7 601 128.8 601C86 601 43 601 21.5 601L0 601Z" fill="#002955"></path><path d="M0 562L21.5 563.2C43 564.3 86 566.7 128.8 567.5C171.7 568.3 214.3 567.7 257.2 566.2C300 564.7 343 562.3 385.8 560.2C428.7 558 471.3 556 514.2 554C557 552 600 550 642.8 548.3C685.7 546.7 728.3 545.3 771.2 546.5C814 547.7 857 551.3 878.5 553.2L900 555L900 601L878.5 601C857 601 814 601 771.2 601C728.3 601 685.7 601 642.8 601C600 601 557 601 514.2 601C471.3 601 428.7 601 385.8 601C343 601 300 601 257.2 601C214.3 601 171.7 601 128.8 601C86 601 43 601 21.5 601L0 601Z" fill="#001122"></path></svg>